<?xml version="1.0" encoding="utf-8"?>
<!-- Generator: Adobe Illustrator 16.0.4, SVG Export Plug-In . SVG Version: 6.00 Build 0)  -->
<!DOCTYPE svg PUBLIC "-//W3C//DTD SVG 1.1//EN" "http://www.w3.org/Graphics/SVG/1.1/DTD/svg11.dtd">
<svg version="1.1" id="Layer_1" xmlns="http://www.w3.org/2000/svg" xmlns:xlink="http://www.w3.org/1999/xlink" x="0px" y="0px"
	 width="1273.437px" height="509.975px" viewBox="0 0 1273.437 509.975" enable-background="new 0 0 1273.437 509.975"
	 xml:space="preserve">
<ellipse fill="#F9325D" cx="1103.214" cy="167.131" rx="18.15" ry="17.401"/>
<ellipse fill="#F9325D" cx="1188.214" cy="166.131" rx="18.15" ry="17.401"/>
<ellipse fill="#F9325D" cx="1085.214" cy="140.617" rx="18.15" ry="19.916"/>
<ellipse fill="#F9325D" cx="1206.214" cy="138.347" rx="18.15" ry="20.186"/>
<path fill="#73002B" d="M858.885,195.719c0,0-22.223-24.914,7.64-96.883"/>
<g>
	<path fill="#73002B" d="M764,97.162c18.779,32.814,19.912,78.416,2.533,101.956"/>
</g>
<g>
	<circle fill="#ECC19C" cx="191.216" cy="139.729" r="9.667"/>
	<circle fill="#ECC19C" cx="74.216" cy="139.729" r="9.667"/>
	<rect x="73.884" y="123.396" fill="#000099" width="117" height="79"/>
	<polygon fill="#993333" points="101.167,210.396 132.234,177.729 163.303,210.396 	"/>
	<g>
		<path fill="#000099" d="M191.206,130.815c0-32.365-26.237-58.602-58.602-58.602C132.604,104.604,158.814,130.815,191.206,130.815z
			"/>
		<path fill="#000099" d="M132.604,72.213c-32.365,0-58.602,26.237-58.602,58.602C106.394,130.815,132.604,104.604,132.604,72.213z"
			/>
		<path fill="#ECC19C" d="M132.604,72.213c0,32.392-26.21,58.602-58.602,58.602c0,32.365,26.237,58.602,58.602,58.602
			s58.602-26.237,58.602-58.602C158.814,130.815,132.604,104.604,132.604,72.213z"/>
	</g>
	<circle stroke="#000000" stroke-miterlimit="10" cx="107.969" cy="135.396" r="4.667"/>
	<circle stroke="#000000" stroke-miterlimit="10" cx="156.969" cy="135.396" r="4.667"/>
	<path fill="#CB8C84" d="M156.969,158.396c0,7.923-10.898,14.334-24.365,14.334c-13.617,0-24.635-6.411-24.635-14.334"/>
</g>
<path fill="#AC8457" d="M191.074,361.069c-5.272,0.077-9.524,4.369-9.524,9.66c0,4.632,3.26,8.498,7.61,9.441
	c1.326-4.896,2.046-10.04,2.046-15.355C191.206,363.556,191.152,362.31,191.074,361.069z"/>
<polygon fill="#339933" points="101.167,438.396 132.234,405.729 163.303,438.396 "/>
<path fill="#B08874" d="M191.216,361.062c-0.048,0-0.094,0.007-0.142,0.007c0.078,1.24,0.132,2.486,0.132,3.746
	c0,5.315-0.72,10.46-2.046,15.355c0.663,0.145,1.35,0.225,2.056,0.225c5.34,0,9.667-4.328,9.667-9.666
	C200.883,365.391,196.556,361.062,191.216,361.062z"/>
<path fill="#B08874" d="M74.134,361.066c-5.3,0.045-9.584,4.353-9.584,9.663c0,5.338,4.328,9.666,9.667,9.666
	c0.631,0,1.247-0.065,1.845-0.181c-1.334-4.909-2.059-10.068-2.059-15.399C74.002,363.555,74.056,362.308,74.134,361.066z"/>
<path fill="#AC8457" d="M181.55,370.729c0-5.291,4.252-9.583,9.524-9.66c-1.933-30.618-27.364-54.856-58.47-54.856
	c-31.104,0-56.535,24.237-58.47,54.854c0.028,0,0.055-0.004,0.083-0.004c5.339,0,9.667,4.328,9.667,9.667
	c0,4.707-3.366,8.624-7.822,9.485c6.764,24.892,29.509,43.202,56.543,43.202c27.05,0,49.806-18.332,56.556-43.246
	C184.81,379.228,181.55,375.361,181.55,370.729z"/>
<path fill="#AC8457" d="M83.883,370.729c0-5.339-4.328-9.667-9.667-9.667c-0.028,0-0.055,0.004-0.083,0.004
	c-0.078,1.241-0.132,2.488-0.132,3.749c0,5.331,0.725,10.49,2.059,15.399C80.517,379.354,83.883,375.437,83.883,370.729z"/>
<circle fill="#543E36" cx="107.969" cy="369.396" r="4.667"/>
<circle fill="#543E36" cx="156.969" cy="369.396" r="4.667"/>
<path fill="#CB8C84" stroke="#CB8C84" stroke-linecap="round" stroke-linejoin="round" stroke-miterlimit="10" d="M156.97,392.396
	c0,7.923-10.898,14.334-24.366,14.334c-13.617,0-24.635-6.411-24.635-14.334"/>
<path fill="#7D4921" d="M187.884,337.988c0,1.779-3.514,4.407-8.67,4.407l-46.61-6l-44.884,6c-5.156,0-9.836-2.628-9.836-4.407
	l5.999-34.926c0-1.779-0.488,7,4.668,7l5.752-11l13.667,11l19.915-11l15.419,8.15l13.667-8.15l11.581,11l12.999-11
	c5.156,0,4.313,2.749,4.313,4.528L187.884,337.988z"/>
<polygon fill="#FF6666" points="270.767,438.396 301.834,405.729 332.903,438.396 "/>
<circle fill="#ECC19C" cx="360.816" cy="370.729" r="9.667"/>
<circle fill="#ECC19C" cx="243.816" cy="370.729" r="9.667"/>
<circle fill="#ECC19C" cx="302.204" cy="361.815" r="58.602"/>
<circle stroke="#000000" stroke-miterlimit="10" cx="277.569" cy="366.396" r="4.667"/>
<circle stroke="#000000" stroke-miterlimit="10" cx="326.569" cy="366.396" r="4.667"/>
<path fill="#E0ADA6" stroke="#E0ADA6" stroke-width="4" stroke-miterlimit="10" d="M326.57,389.396
	c0,7.923-10.898,14.334-24.366,14.334c-13.617,0-24.635-6.411-24.635-14.334"/>
<g>
	<g>
		<path fill="#72594B" d="M269.983,326.396c0.474-3.797,0.266-7.48-1.765-10.81c-2.006-3.29-5.711-5.35-8.979-7.152
			c-1.695-0.936-3.208,1.655-1.514,2.59c2.665,1.471,5.28,2.993,7.323,5.289c2.447,2.751,2.359,6.668,1.934,10.083
			C266.744,328.312,269.747,328.289,269.983,326.396L269.983,326.396z"/>
	</g>
</g>
<g>
	<g>
		<path fill="#72594B" d="M290.65,319.062c-0.044-8.45-0.622-16.884-0.667-25.334c-0.01-1.934-3.01-1.935-3,0
			c0.044,8.45,0.622,16.884,0.667,25.334C287.66,320.996,290.66,320.997,290.65,319.062L290.65,319.062z"/>
	</g>
</g>
<g>
	<g>
		<path fill="#72594B" d="M308.21,318.123c5.157-6.204,11.913-10.187,19.031-13.766c1.729-0.869,0.209-3.457-1.515-2.59
			c-7.334,3.688-14.329,7.847-19.637,14.234C304.862,317.478,306.973,319.612,308.21,318.123L308.21,318.123z"/>
	</g>
</g>
<g>
	<g>
		<path fill="#72594B" d="M332.883,319.842c3.681-1.45,7.433-2.638,11.333-3.333c1.902-0.339,1.094-3.229-0.798-2.893
			c-3.9,0.695-7.652,1.882-11.333,3.333C330.307,317.65,331.081,320.552,332.883,319.842L332.883,319.842z"/>
	</g>
</g>
<polygon fill="#CCFF66" points="441.367,438.396 472.435,405.729 503.503,438.396 "/>
<circle fill="#F1DBCB" cx="530.417" cy="361.729" r="9.667"/>
<circle fill="#F1DBCB" cx="413.417" cy="361.729" r="9.667"/>
<circle fill="#F1DBCB" cx="471.804" cy="359.815" r="58.602"/>
<path fill="#926D5A" d="M526.273,320.16c-29.167-30.093-77.892-30.092-108.938,0"/>
<circle fill="#0033FF" cx="447.169" cy="364.396" r="4.667"/>
<circle fill="#0033FF" cx="496.169" cy="364.396" r="4.667"/>
<path fill="#CB8C84" stroke="#CB8C84" stroke-width="3" stroke-miterlimit="10" d="M496.17,387.396
	c0,7.923-10.898,14.334-24.365,14.334c-13.617,0-24.635-6.411-24.635-14.334"/>
<polygon fill="#CC9999" points="442.167,217.396 473.234,184.729 504.303,217.396 "/>
<circle fill="#8C715D" cx="473.604" cy="144.385" r="58.602"/>
<path fill="#926D5A" d="M531.683,136.656c0.334,2.531,0.523,5.107,0.523,7.729c0,3.962-0.398,7.831-1.148,11.573
	c0.054,0,0.104,0.008,0.158,0.008c5.34,0,9.667-4.328,9.667-9.666C540.883,141.118,536.804,136.901,531.683,136.656z"/>
<path fill="#926D5A" d="M415.516,136.73c-0.426-0.058-0.857-0.098-1.3-0.098c-5.338,0-9.666,4.328-9.666,9.667
	c0,5.338,4.328,9.666,9.666,9.666c0.651,0,1.287-0.066,1.902-0.189c-0.727-3.686-1.116-7.492-1.116-11.391
	C415.002,141.789,415.188,139.237,415.516,136.73z"/>
<path fill="#330000" stroke="#000000" stroke-miterlimit="10" d="M507.859,96.85c-2.388-17.137-17.093-30.331-34.887-30.331
	c-18.153,0-33.093,13.728-35.019,31.368c9.878-7.585,22.233-12.104,35.65-12.104C486.397,85.783,498.223,89.894,507.859,96.85z"/>
<path stroke="#000000" stroke-miterlimit="10" d="M493.381,130.896h37.147c-3.349-14-11.541-25.796-22.669-33.83
	c0.223,1.603,0.347,3.346,0.347,5.01C508.206,113.926,502.351,123.896,493.381,130.896z"/>
<path stroke="#000000" stroke-miterlimit="10" d="M452.563,130.896h40.817c8.97-7,14.825-17.077,14.825-28.928
	c0-1.664-0.124-3.407-0.347-5.01c-9.637-6.956-21.462-11.121-34.255-11.121c-13.417,0-25.772,4.492-35.65,12.077
	c-0.139,1.271-0.216,2.761-0.216,4.068C437.738,113.832,443.594,123.896,452.563,130.896z"/>
<circle fill="#000066" cx="448.97" cy="148.966" r="4.667"/>
<circle fill="#000066" cx="497.97" cy="148.966" r="4.667"/>
<path fill="#CB8C84" d="M497.97,171.965c0,7.923-10.898,14.334-24.365,14.334c-13.617,0-24.635-6.411-24.635-14.334"/>
<path stroke="#000000" stroke-miterlimit="10" d="M453.527,130.896H416.38c3.349-14,11.541-25.796,22.669-33.83
	c-0.223,1.603-0.347,3.346-0.347,5.01C438.702,113.926,444.558,123.896,453.527,130.896z"/>
<polygon fill="#0099CC" points="610.967,438.396 642.034,405.729 673.103,438.396 "/>
<path fill="#926D5A" d="M700.016,358.062c-0.18,0-0.355,0.017-0.533,0.026c0.334,2.53,0.523,5.105,0.523,7.727
	c0,3.938-0.396,7.785-1.137,11.506c0.377,0.045,0.758,0.074,1.146,0.074c5.34,0,9.667-4.328,9.667-9.666
	C709.683,362.391,705.355,358.062,700.016,358.062z"/>
<path fill="#926D5A" d="M583.326,358.078c-0.104-0.003-0.205-0.016-0.311-0.016c-5.338,0-9.666,4.328-9.666,9.667
	c0,5.338,4.328,9.666,9.666,9.666c0.313,0,0.622-0.018,0.928-0.047c-0.745-3.729-1.142-7.585-1.142-11.533
	C582.802,363.19,582.992,360.611,583.326,358.078z"/>
<circle fill="none" cx="665.77" cy="370.396" r="4.667"/>
<circle fill="none" cx="616.769" cy="370.396" r="4.667"/>
<path fill="#8C715D" d="M690.35,367.729c0-5.159,4.045-9.361,9.133-9.641c-3.783-28.711-28.334-50.876-58.078-50.876
	c-29.741,0-54.289,22.159-58.078,50.865c5.193,0.165,9.356,4.417,9.356,9.651c0,5.025-3.836,9.152-8.739,9.619
	c5.357,26.842,29.044,47.068,57.461,47.068c28.426,0,52.117-20.24,57.465-47.096C694.072,376.754,690.35,372.679,690.35,367.729z
	 M612.103,370.396c0-2.577,2.089-4.666,4.667-4.666c2.577,0,4.666,2.089,4.666,4.666c0,2.578-2.089,4.667-4.666,4.667
	C614.191,375.062,612.103,372.974,612.103,370.396z M665.77,375.062c-2.578,0-4.667-2.089-4.667-4.667
	c0-2.577,2.089-4.666,4.667-4.666c2.577,0,4.666,2.089,4.666,4.666C670.436,372.974,668.347,375.062,665.77,375.062z"/>
<path fill="#8C715D" d="M699.482,358.089c-5.088,0.279-9.133,4.481-9.133,9.641c0,4.949,3.723,9.024,8.52,9.592
	c0.741-3.721,1.137-7.567,1.137-11.506C700.006,363.194,699.816,360.619,699.482,358.089z"/>
<path fill="#8C715D" d="M592.683,367.729c0-5.234-4.163-9.486-9.356-9.651c-0.334,2.533-0.524,5.112-0.524,7.737
	c0,3.948,0.396,7.804,1.142,11.533C588.847,376.882,592.683,372.755,592.683,367.729z"/>
<circle fill="#000066" cx="616.769" cy="370.396" r="4.667"/>
<circle fill="#000066" cx="665.77" cy="370.396" r="4.667"/>
<path fill="#E0ADA6" stroke="#DFB28B" stroke-linecap="round" stroke-linejoin="round" stroke-miterlimit="10" d="M665.77,390.396
	c0,7.923-10.898,14.334-24.365,14.334c-13.617,0-24.635-6.411-24.635-14.334"/>
<path fill="#330033" stroke="#000000" stroke-miterlimit="10" d="M601.271,324.937c22.582,23.221,59.646,23.738,82.867,1.155"/>
<path fill="#330033" stroke="#000000" stroke-miterlimit="10" d="M683.139,326.092c-22.583-23.222-59.646-23.738-82.868-1.155"/>
<polygon fill="#73002B" points="690.513,199.45 687.962,212.332 669.679,202.138 653.262,212.245 636.933,202.095 622.134,212.223 
	602.931,204.218 596.11,212.218 594.579,199.451 584.884,128.396 704.29,128.396 "/>
<polygon fill="#9966FF" points="611.167,204.396 642.234,171.729 673.303,204.396 "/>
<g>
	<g>
		<circle fill="#F0BEB4" cx="642.604" cy="131.351" r="58.602"/>
	</g>
</g>
<path fill="#F0BEB4" d="M700.683,123.622c0.334,2.53,0.523,5.106,0.523,7.729c0,3.962-0.398,7.83-1.148,11.572
	c0.054,0,0.104,0.008,0.158,0.008c5.34,0,9.667-4.328,9.667-9.666C709.883,128.083,705.804,123.867,700.683,123.622z"/>
<path fill="#F0BEB4" d="M584.516,123.696c-0.426-0.058-0.857-0.098-1.3-0.098c-5.338,0-9.666,4.328-9.666,9.667
	c0,5.338,4.328,9.666,9.666,9.666c0.651,0,1.287-0.066,1.902-0.189c-0.727-3.686-1.116-7.492-1.116-11.391
	C584.002,128.754,584.188,126.203,584.516,123.696z"/>
<circle fill="#000066" cx="617.97" cy="135.932" r="4.667"/>
<circle fill="#000066" cx="666.97" cy="135.932" r="4.667"/>
<path fill="#CB8C84" d="M666.97,158.931c0,7.923-10.898,14.334-24.365,14.334c-13.617,0-24.635-6.411-24.635-14.334"/>
<path fill="none" stroke="#000000" stroke-miterlimit="10" d="M618.619,77.868c0,0.006,0,0.011,0,0.017c0,0,0,0,0.001,0
	C618.62,77.879,618.619,77.874,618.619,77.868z"/>
<g>
	<g>
		<path fill="#73002B" d="M616.094,76.231c-19.663,12.438-32.795,36.267-33.616,63.517
			C603.776,138.011,618.808,109.604,616.094,76.231z"/>
	</g>
</g>
<g>
	<g>
		<path fill="#73002B" d="M702.747,127.966c-4.525-32.094-30.413-56.697-61.676-56.697c-9.101,0-17.736,2.102-25.532,5.849
			c-0.001,0-0.001,0-0.001,0c0,0.054-0.003,0.107-0.003,0.162C619.376,104.67,656.5,126.37,702.747,127.966z"/>
	</g>
</g>
<polygon fill="#99CC66" points="274.167,215.396 305.234,182.729 336.303,215.396 "/>
<path fill="#CC6633" d="M390.003,213.03c-10.795-2.561-25.719-0.571-14.455-26.069c11.26-25.496-7.052-35.989-18.524-38.196
	c-11.474-2.207-30.893-12.092-20.68-39.697c9.089-24.574-15.448-38.778-20.948-41.602c-2.888-2.545-6.745-4.113-10.997-4.113
	c-8.936,0-16.181,6.872-16.181,15.352c0,8.48,7.245,15.352,16.181,15.352c2.776,0,5.389-0.665,7.672-1.834
	c3.63,6.357,5.26,14.355,1.708,23.952c-10.212,27.604,9.646,37.352,21.12,39.558c11.472,2.206,29.747,12.712,18.487,38.209
	c-11.264,25.495,3.644,23.514,14.436,26.073l0.488,0.118l22.197-6.991L390.003,213.03z"/>
<circle fill="#CC6633" cx="305.604" cy="137.272" r="58.602"/>
<g>
	<g>
		<path fill="#8E572A" d="M303.604,105.617c-31.286,0-56.603,16.069-56.603,35.928c0,30.006,26.237,54.329,58.603,54.329
			s58.602-24.323,58.602-54.329C364.206,121.687,337.101,105.617,303.604,105.617z"/>
	</g>
</g>
<circle fill="#8E572A" cx="364.216" cy="147.187" r="9.667"/>
<circle fill="#8E572A" cx="247.216" cy="147.187" r="9.667"/>
<circle stroke="#000000" stroke-miterlimit="10" cx="280.969" cy="143.853" r="4.667"/>
<circle stroke="#000000" stroke-miterlimit="10" cx="329.969" cy="143.853" r="4.667"/>
<path fill="#CB8C84" d="M329.97,166.853c0,7.923-10.898,14.334-24.365,14.334c-13.617,0-24.635-6.411-24.635-14.334"/>
<polygon fill="#FF0033" points="780.567,438.396 811.635,405.729 842.703,438.396 "/>
<circle fill="#DFB28B" cx="869.617" cy="361.729" r="9.667"/>
<circle fill="#DFB28B" cx="752.617" cy="361.729" r="9.667"/>
<circle fill="#DFB28B" cx="811.004" cy="359.815" r="58.602"/>
<circle fill="#663333" cx="786.37" cy="364.396" r="4.667"/>
<circle fill="#663333" cx="835.37" cy="364.396" r="4.667"/>
<path fill="#CB8C84" stroke="#CB8C84" stroke-width="3" stroke-miterlimit="10" d="M835.37,387.396
	c0,7.923-10.898,14.334-24.365,14.334c-13.617,0-24.635-6.411-24.635-14.334"/>
<path fill="#926D5A" d="M752.972,363.136c23.657-23.181,33.568-51.361,22.16-63.003l0.257-0.205
	c-23.478,23.356-32.926,51.365-21.124,62.626"/>
<path fill="#926D5A" d="M873.777,331.089c-10.624-31.928-55.097-45.824-99.435-31.069l-0.011-0.349
	c11.307,31.692,56.187,44.971,100.346,29.689"/>
<polygon fill="#FF9966" points="950.167,438.396 981.234,405.729 1012.303,438.396 "/>
<circle fill="#DFB28B" cx="1039.216" cy="361.729" r="9.667"/>
<circle fill="#DFB28B" cx="922.216" cy="361.729" r="9.667"/>
<circle fill="#CF9E76" cx="980.604" cy="359.815" r="58.602"/>
<circle fill="#663333" cx="955.969" cy="364.396" r="4.667"/>
<circle fill="#663333" cx="1004.969" cy="364.396" r="4.667"/>
<path fill="#FFCCCC" stroke="#FFCCCC" stroke-width="3" stroke-miterlimit="10" d="M1004.97,387.396
	c0,7.923-10.898,14.334-24.365,14.334c-13.617,0-24.635-6.411-24.635-14.334"/>
<g>
	<g>
		<g>
			<path fill="#926D5A" d="M931.882,314.092c-5.695,11.529-17.965,48.288,2.259,57.749
				C940.379,358.271,951.901,323.659,931.882,314.092z"/>
			<path fill="#926D5A" d="M933.645,372.903l0.905-0.855c-0.144-0.062-0.269-0.142-0.409-0.207
				C933.972,372.208,933.805,372.568,933.645,372.903z"/>
		</g>
	</g>
</g>
<g>
	<g>
		<g>
			<path fill="#926D5A" d="M1026.27,373.14c-0.153-0.34-0.313-0.706-0.475-1.078c-0.146,0.063-0.275,0.141-0.424,0.201
				L1026.27,373.14z"/>
			<path fill="#926D5A" d="M1029.864,313.968c-20.754,9.305-10.033,44.333-4.069,58.094
				C1046.755,362.871,1035.332,325.666,1029.864,313.968z"/>
		</g>
	</g>
</g>
<ellipse fill="#926D5A" stroke="#926D5A" stroke-miterlimit="10" cx="980.17" cy="314.163" rx="50.168" ry="19.786"/>
<polygon fill="#FFAD76" points="781.167,204.396 812.234,171.729 843.303,204.396 "/>
<g>
	<g>
		<circle fill="#CEAB97" cx="812.604" cy="131.351" r="58.602"/>
	</g>
</g>
<path fill="#CEAB97" d="M870.683,123.622c0.334,2.53,0.523,5.106,0.523,7.729c0,3.962-0.398,7.83-1.148,11.572
	c0.054,0,0.104,0.008,0.158,0.008c5.34,0,9.667-4.328,9.667-9.666C879.883,128.083,875.804,123.867,870.683,123.622z"/>
<path fill="#CEAB97" d="M754.516,123.696c-0.426-0.058-0.857-0.098-1.3-0.098c-5.338,0-9.666,4.328-9.666,9.667
	c0,5.338,4.328,9.666,9.666,9.666c0.651,0,1.287-0.066,1.902-0.189c-0.727-3.686-1.116-7.492-1.116-11.391
	C754.002,128.754,754.188,126.203,754.516,123.696z"/>
<circle fill="#000066" cx="787.97" cy="135.932" r="4.667"/>
<circle fill="#000066" cx="836.97" cy="135.932" r="4.667"/>
<path fill="#CB8C84" d="M836.97,158.931c0,7.923-10.898,14.334-24.365,14.334c-13.617,0-24.635-6.411-24.635-14.334"/>
<path fill="none" stroke="#000000" stroke-miterlimit="10" d="M788.619,77.868c0,0.006,0,0.011,0,0.017c0,0,0,0,0.001,0
	C788.62,77.879,788.619,77.874,788.619,77.868z"/>
<g>
	<path fill="#73002B" d="M767.097,200.1c-19.141-32.604-20.777-78.19-3.66-101.921"/>
</g>
<path fill="#73002B" d="M863.879,99.292c0,0,22.605,24.568-6.142,96.989"/>
<g>
	<g>
		<path fill="#73002B" d="M754.78,115.958l75.893-43.311C797.753,63.65,763.781,83.043,754.78,115.958z"/>
	</g>
	<g>
		<path fill="#73002B" d="M830.671,72.643l-75.886,43.319C787.702,124.955,821.675,105.559,830.671,72.643z"/>
	</g>
</g>
<g>
	<g>
		<path fill="#73002B" d="M868.491,111.553L822.68,75.366C827.127,100.769,847.638,116.965,868.491,111.553z"/>
	</g>
	<g>
		<path fill="#73002B" d="M822.679,75.368l45.814,36.18C864.045,86.148,843.532,69.953,822.679,75.368z"/>
	</g>
</g>
<path fill="#FFDE76" stroke="#FFDE76" stroke-miterlimit="10" d="M1038.384,194.935c0,4.12-2.238,7.961-5,7.961h-104
	c-2.762,0-5-3.841-5-7.961v-80.578c0-4.12,2.238-7.461,5-7.461h104c2.762,0,5,3.341,5,7.461V194.935z"/>
<polygon fill="#78B5FF" points="950.167,202.396 981.234,169.729 1012.303,202.396 "/>
<g>
	<g>
		<circle fill="#F0BEB4" cx="981.604" cy="129.351" r="58.602"/>
	</g>
</g>
<path fill="#F0BEB4" d="M1039.683,121.622c0.334,2.53,0.523,5.106,0.523,7.729c0,3.962-0.398,7.83-1.148,11.572
	c0.054,0,0.104,0.008,0.158,0.008c5.34,0,9.667-4.328,9.667-9.666C1048.883,126.083,1044.804,121.867,1039.683,121.622z"/>
<path fill="#F0BEB4" d="M923.516,121.696c-0.426-0.058-0.857-0.098-1.3-0.098c-5.338,0-9.666,4.328-9.666,9.667
	c0,5.338,4.328,9.666,9.666,9.666c0.651,0,1.287-0.066,1.902-0.189c-0.727-3.686-1.116-7.492-1.116-11.391
	C923.002,126.754,923.188,124.203,923.516,121.696z"/>
<circle fill="#056600" cx="956.97" cy="133.932" r="4.667"/>
<circle fill="#056600" cx="1005.97" cy="133.932" r="4.667"/>
<path fill="#F498C6" d="M1005.97,156.931c0,7.923-10.898,14.333-24.365,14.333c-13.617,0-24.635-6.41-24.635-14.333"/>
<path fill="none" stroke="#000000" stroke-miterlimit="10" d="M957.619,75.868c0,0.006,0,0.011,0,0.017c0,0,0,0,0.001,0
	C957.62,75.879,957.619,75.874,957.619,75.868z"/>
<g>
	<g>
		<path fill="#FFDE76" d="M923.78,113.958l75.893-43.311C966.753,61.65,932.781,81.043,923.78,113.958z"/>
	</g>
	<g>
		<path fill="#FFDE76" d="M999.671,70.643l-75.886,43.319C956.702,122.955,990.675,103.559,999.671,70.643z"/>
	</g>
</g>
<g>
	<g>
		<path fill="#FFDE76" stroke="#FFDE76" stroke-miterlimit="10" d="M1037.491,109.553L991.68,73.366
			C996.127,98.769,1016.638,114.965,1037.491,109.553z"/>
	</g>
	<g>
		<path fill="#FFDE76" stroke="#FFDE76" stroke-miterlimit="10" d="M991.679,73.368l45.814,36.18
			C1033.045,84.148,1012.532,67.953,991.679,73.368z"/>
	</g>
</g>
<polygon fill="#BB94F7" points="1121.167,436.396 1152.234,403.729 1183.303,436.396 "/>
<circle fill="#F0BEB4" cx="1210.216" cy="359.729" r="9.667"/>
<circle fill="#F0BEB4" cx="1093.216" cy="359.729" r="9.667"/>
<circle fill="#F0BEB4" cx="1151.604" cy="357.815" r="58.602"/>
<circle fill="#663333" cx="1126.969" cy="362.396" r="4.667"/>
<circle fill="#663333" cx="1175.969" cy="362.396" r="4.667"/>
<path fill="#713C1A" stroke="#713C1A" stroke-width="3" stroke-miterlimit="10" d="M1175.97,385.396
	c0,7.923-10.898,14.334-24.365,14.334c-13.617,0-24.635-6.411-24.635-14.334"/>
<ellipse fill="#713C1A" cx="1096.145" cy="340.576" rx="8.406" ry="12.045"/>
<ellipse transform="matrix(0.8924 -0.4513 0.4513 0.8924 -21.1036 539.6274)" fill="#713C1A" cx="1120.883" cy="314.062" rx="23.668" ry="19.335"/>
<ellipse transform="matrix(0.9724 -0.2334 0.2334 0.9724 -45.9902 289.9948)" fill="#713C1A" cx="1202.269" cy="339.312" rx="8.799" ry="14.781"/>
<ellipse fill="#713C1A" cx="1103.776" cy="326.978" rx="12.395" ry="13.252"/>
<circle fill="#713C1A" cx="1175.551" cy="307.396" r="21"/>
<circle fill="#713C1A" cx="1196.551" cy="324.396" r="13"/>
<ellipse transform="matrix(0.1434 0.9897 -0.9897 0.1434 1282.0867 -871.5048)" fill="#713C1A" cx="1144.502" cy="304.896" rx="22.941" ry="19.936"/>
<polygon fill="#417009" points="1114.167,202.396 1145.234,169.729 1176.303,202.396 "/>
<g>
	<g>
		<circle fill="#F7DAD5" cx="1145.604" cy="129.351" r="58.602"/>
	</g>
</g>
<path fill="#F7DAD5" d="M1203.683,121.622c0.334,2.53,0.523,5.106,0.523,7.729c0,3.962-0.398,7.83-1.148,11.572
	c0.054,0,0.104,0.008,0.158,0.008c5.34,0,9.667-4.328,9.667-9.666C1212.883,126.083,1208.804,121.867,1203.683,121.622z"/>
<path fill="#F7DAD5" d="M1087.516,121.696c-0.426-0.058-0.857-0.098-1.3-0.098c-5.338,0-9.666,4.328-9.666,9.667
	c0,5.338,4.328,9.666,9.666,9.666c0.651,0,1.287-0.066,1.902-0.189c-0.727-3.686-1.116-7.492-1.116-11.391
	C1087.002,126.754,1087.188,124.203,1087.516,121.696z"/>
<circle fill="#050066" cx="1120.97" cy="133.932" r="4.667"/>
<circle fill="#050066" cx="1169.97" cy="133.932" r="4.667"/>
<path fill="#FF8693" d="M1169.97,156.931c0,7.923-10.898,14.333-24.365,14.333c-13.617,0-24.635-6.41-24.635-14.333"/>
<path fill="none" stroke="#000000" stroke-miterlimit="10" d="M1121.619,75.868c0,0.006,0,0.011,0,0.017c0,0,0,0,0.001,0
	C1121.62,75.879,1121.619,75.874,1121.619,75.868z"/>
<ellipse fill="#F9325D" cx="1109.522" cy="81.829" rx="19.731" ry="20.195"/>
<ellipse transform="matrix(0.8017 0.5978 -0.5978 0.8017 284.2327 -685.8046)" fill="#F9325D" cx="1175.567" cy="85.413" rx="27.822" ry="21.47"/>
<ellipse fill="#F9325D" cx="1144.214" cy="89.208" rx="18.15" ry="19.324"/>
<ellipse fill="#F9325D" cx="1197.428" cy="110.418" rx="13.913" ry="14.503"/>
<ellipse transform="matrix(0.9401 0.3409 -0.3409 0.9401 102.3435 -366.3024)" fill="#F9325D" cx="1093.667" cy="108.118" rx="15.658" ry="17.639"/>
<ellipse fill="#F9325D" cx="1126.214" cy="71.208" rx="18.15" ry="19.324"/>
<ellipse fill="#F9325D" cx="1151.214" cy="63.208" rx="18.15" ry="19.324"/>
<g opacity="0.4">
	<circle fill="#E2E2E2" stroke="#E2E2E2" stroke-width="2" stroke-miterlimit="10" cx="782.525" cy="363.08" r="20.018"/>
	<circle fill="#E2E2E2" stroke="#E2E2E2" stroke-width="2" stroke-miterlimit="10" cx="840.288" cy="363.08" r="20.018"/>
	
		<line fill="#E2E2E2" stroke="#E2E2E2" stroke-width="2" stroke-miterlimit="10" x1="801.884" y1="363.396" x2="819.884" y2="363.396"/>
</g>
<g>
	<path fill="none" stroke="#B992F4" stroke-width="2" stroke-miterlimit="10" d="M463.884,368.396c0,2.762-2.238,5-5,5h-22
		c-2.762,0-5-2.238-5-5v-11c0-2.762,2.238-5,5-5h22c2.762,0,5,2.238,5,5V368.396z"/>
	<path fill="none" stroke="#B992F4" stroke-width="2" stroke-miterlimit="10" d="M510.884,368.396c0,2.762-2.238,5-5,5h-22
		c-2.762,0-5-2.238-5-5v-11c0-2.762,2.238-5,5-5h22c2.762,0,5,2.238,5,5V368.396z"/>
	<path fill="none" stroke="#B992F4" stroke-width="2" stroke-miterlimit="10" d="M478.568,363.405
		c-3.859-3.859-10.104-3.859-13.964,0"/>
</g>
<g opacity="0.3">
	<path fill="#FCFCFC" stroke="#F7F4B5" stroke-width="2" stroke-miterlimit="10" d="M804.884,141.396c0,2.762-2.238,5-5,5h-22
		c-2.762,0-5-2.238-5-5v-11c0-2.762,2.238-5,5-5h22c2.762,0,5,2.238,5,5V141.396z"/>
	<path fill="#FCFCFC" stroke="#F7F4B5" stroke-width="2" stroke-miterlimit="10" d="M851.884,141.396c0,2.762-2.238,5-5,5h-22
		c-2.762,0-5-2.238-5-5v-11c0-2.762,2.238-5,5-5h22c2.762,0,5,2.238,5,5V141.396z"/>
	<path fill="#FCFCFC" stroke="#F7F4B5" stroke-width="2" stroke-miterlimit="10" d="M819.568,136.405
		c-3.859-3.859-10.104-3.859-13.964,0"/>
</g>
<g opacity="0.4">
	
		<rect x="263.884" y="131.396" fill="#F4B5C2" stroke="#F4B5C2" stroke-width="2" stroke-linejoin="round" stroke-miterlimit="10" width="30" height="26"/>
	
		<rect x="316.884" y="131.396" fill="#F4B5C2" stroke="#F4B5C2" stroke-width="2" stroke-linejoin="round" stroke-miterlimit="10" width="31" height="26"/>
	
		<line fill="#F4B5C2" stroke="#F4B5C2" stroke-width="2" stroke-linejoin="round" stroke-miterlimit="10" x1="293.884" y1="144.396" x2="316.884" y2="144.396"/>
</g>
</svg>
